<svg fill="none" height="92" width="92" xmlns="http://www.w3.org/2000/svg"><rect fill="#fff" height="90.562" rx="19.5" stroke="#c4cfe3" width="90.562" x=".5" y=".5"/><path d="M22.95 66.196h8.483v-20.6l-12.118-9.09v26.055a3.634 3.634 0 0 0 3.635 3.635z" fill="#4285f4"/><path d="M60.516 66.196h8.482a3.634 3.634 0 0 0 3.636-3.635V36.507l-12.118 9.088" fill="#34a853"/><path d="M60.516 29.842v15.754l12.118-9.089V31.66c0-4.496-5.132-7.06-8.725-4.363" fill="#fbbc04"/><path d="M31.434 45.595V29.842l14.541 10.906 14.542-10.906v15.753L45.975 56.502" fill="#ea4335"/><path d="M19.314 31.66v4.847l12.119 9.089V29.842l-3.393-2.545c-3.6-2.696-8.725-.133-8.725 4.363z" fill="#c5221f"/></svg>